<svg width="100%" viewBox="0 0 680 120" role="img" xmlns="http://www.w3.org/2000/svg">
<style>
  .web-line { stroke: #ffb6c1; stroke-width: 1.2; }
  .spider-body { fill: #FF6B9D; }
  .spider-head { fill: #ff8cb4; }
  .spider-eye { fill: #fff; }
  .spider-leg { stroke: #FF6B9D; stroke-width: 1.8; stroke-linecap: round; fill: none; }
  .spider-belly-dot { fill: #ffd6e7; }
</style>
<line x1="120" y1="0" x2="120" y2="42" class="web-line"/>
<g transform="translate(120,42)">
  <ellipse cx="0" cy="10" rx="11" ry="13" class="spider-body"/>
  <circle cx="-3" cy="-1" r="2.5" class="spider-belly-dot" opacity="0.6"/>
  <circle cx="4" cy="2" r="1.8" class="spider-belly-dot" opacity="0.4"/>
  <ellipse cx="0" cy="-4" rx="8" ry="7" class="spider-head"/>
  <circle cx="-3" cy="-5" r="1.5" class="spider-eye"/>
  <circle cx="3" cy="-5" r="1.5" class="spider-eye"/>
  <circle cx="-3" cy="-5" r="0.6" fill="#FF6B9D"/>
  <circle cx="3" cy="-5" r="0.6" fill="#FF6B9D"/>
  <line x1="-11" y1="4" x2="-22" y2="-2" class="spider-leg"/>
  <line x1="-11" y1="8" x2="-23" y2="8" class="spider-leg"/>
  <line x1="-11" y1="12" x2="-21" y2="18" class="spider-leg"/>
  <line x1="11" y1="4" x2="22" y2="-2" class="spider-leg"/>
  <line x1="11" y1="8" x2="23" y2="8" class="spider-leg"/>
  <line x1="11" y1="12" x2="21" y2="18" class="spider-leg"/>
</g>
<line x1="340" y1="0" x2="340" y2="55" class="web-line"/>
<g transform="translate(340,55)">
  <ellipse cx="0" cy="10" rx="13" ry="15" class="spider-body"/>
  <circle cx="-4" cy="-1" r="3" class="spider-belly-dot" opacity="0.6"/>
  <circle cx="5" cy="3" r="2" class="spider-belly-dot" opacity="0.4"/>
  <ellipse cx="0" cy="-5" rx="9" ry="8" class="spider-head"/>
  <circle cx="-3.5" cy="-6" r="1.7" class="spider-eye"/>
  <circle cx="3.5" cy="-6" r="1.7" class="spider-eye"/>
  <circle cx="-3.5" cy="-6" r="0.7" fill="#FF6B9D"/>
  <circle cx="3.5" cy="-6" r="0.7" fill="#FF6B9D"/>
  <line x1="-13" y1="4" x2="-26" y2="-3" class="spider-leg"/>
  <line x1="-13" y1="9" x2="-27" y2="9" class="spider-leg"/>
  <line x1="-13" y1="14" x2="-24" y2="22" class="spider-leg"/>
  <line x1="13" y1="4" x2="26" y2="-3" class="spider-leg"/>
  <line x1="13" y1="9" x2="27" y2="9" class="spider-leg"/>
  <line x1="13" y1="14" x2="24" y2="22" class="spider-leg"/>
</g>
<line x1="560" y1="0" x2="560" y2="38" class="web-line"/>
<g transform="translate(560,38)">
  <ellipse cx="0" cy="10" rx="11" ry="13" class="spider-body"/>
  <circle cx="-3" cy="-1" r="2.5" class="spider-belly-dot" opacity="0.6"/>
  <circle cx="4" cy="3" r="1.8" class="spider-belly-dot" opacity="0.4"/>
  <ellipse cx="0" cy="-4" rx="8" ry="7" class="spider-head"/>
  <circle cx="-3" cy="-5" r="1.5" class="spider-eye"/>
  <circle cx="3" cy="-5" r="1.5" class="spider-eye"/>
  <circle cx="-3" cy="-5" r="0.6" fill="#FF6B9D"/>
  <circle cx="3" cy="-5" r="0.6" fill="#FF6B9D"/>
  <line x1="-11" y1="4" x2="-22" y2="-2" class="spider-leg"/>
  <line x1="-11" y1="8" x2="-23" y2="8" class="spider-leg"/>
  <line x1="-11" y1="12" x2="-21" y2="18" class="spider-leg"/>
  <line x1="11" y1="4" x2="22" y2="-2" class="spider-leg"/>
  <line x1="11" y1="8" x2="23" y2="8" class="spider-leg"/>
  <line x1="11" y1="12" x2="21" y2="18" class="spider-leg"/>
</g>
</svg>
